<svg 
 xmlns="http://www.w3.org/2000/svg"
 xmlns:xlink="http://www.w3.org/1999/xlink"
 width="20px" height="20px">
<path fill-rule="evenodd"  fill-opacity="0" fill="rgb(218, 187, 94)"
 d="M0.000,0.000 L20.000,0.000 L20.000,20.000 L0.000,20.000 L0.000,0.000 Z"/>
<path fill-rule="evenodd"  fill="rgb(250, 123, 38)"
 d="M18.587,5.570 C18.328,4.961 17.957,4.413 17.497,3.952 C17.037,3.494 16.489,3.119 15.880,2.863 C15.272,2.608 14.603,2.464 13.899,2.464 C13.199,2.464 12.530,2.640 11.921,2.952 C11.313,3.262 10.765,3.705 10.305,4.235 C10.178,4.382 10.057,4.533 9.944,4.694 C9.831,4.533 9.713,4.380 9.586,4.235 C9.125,3.705 8.576,3.262 7.970,2.952 C7.360,2.640 6.691,2.464 5.988,2.464 C5.286,2.464 4.615,2.608 4.009,2.863 C3.399,3.119 2.852,3.494 2.391,3.952 C1.930,4.413 1.560,4.961 1.301,5.570 C1.046,6.178 0.903,6.848 0.903,7.548 C0.903,8.253 1.046,8.918 1.301,9.528 C1.560,10.135 1.930,10.686 2.391,11.148 C2.852,11.603 9.336,17.462 9.944,17.721 C10.551,17.462 17.037,11.603 17.497,11.148 C17.957,10.686 18.328,10.135 18.587,9.528 C18.845,8.918 18.988,8.253 18.988,7.548 C18.988,6.848 18.845,6.178 18.587,5.570 Z"/>
</svg>